<svg width="406" height="44" viewBox="0 0 406 44" fill="none" xmlns="http://www.w3.org/2000/svg">
<path d="M43.4 36.5V41.15H0.75V36.5H19.5V27.4C16.1333 27.1667 13.1833 26.4833 10.65 25.35C8.15 24.2167 6.21667 22.7167 4.85 20.85C3.48333 18.95 2.8 16.8 2.8 14.4C2.8 11.8 3.6 9.51667 5.2 7.55C6.8 5.55 9.05 4 11.95 2.9C14.85 1.8 18.2167 1.25 22.05 1.25C25.8833 1.25 29.25 1.8 32.15 2.9C35.05 4 37.3 5.55 38.9 7.55C40.5 9.51667 41.3 11.8 41.3 14.4C41.3 16.8 40.6167 18.95 39.25 20.85C37.8833 22.7167 35.9333 24.2167 33.4 25.35C30.8667 26.4833 27.9167 27.1667 24.55 27.4V36.5H43.4ZM8.05 14.4C8.05 16.1 8.63333 17.6 9.8 18.9C10.9667 20.2 12.6 21.2167 14.7 21.95C16.8333 22.65 19.2833 23 22.05 23C24.85 23 27.3 22.65 29.4 21.95C31.5333 21.2167 33.1833 20.2 34.35 18.9C35.5167 17.6 36.1 16.1 36.1 14.4C36.1 12.7 35.5167 11.2 34.35 9.9C33.1833 8.56666 31.5333 7.55 29.4 6.85C27.3 6.11666 24.85 5.75 22.05 5.75C19.2833 5.75 16.8333 6.11666 14.7 6.85C12.6 7.55 10.9667 8.56666 9.8 9.9C8.63333 11.2 8.05 12.7 8.05 14.4ZM51.8957 0.499997H56.8457V10.65H88.9457V14.55H51.8957V0.499997ZM48.8457 18.05H91.4957V21.95H48.8457V18.05ZM51.7957 32.3H83.6957V29.2H51.6957V25.45H88.5457V35.85H56.6457V38.95H89.2957V42.7H51.7957V32.3ZM151.155 0.499997V24.1H146.205V12.85H137.905V8.55H146.205V0.499997H151.155ZM126.005 14.8C124.538 17.2 122.572 19.1333 120.105 20.6C117.672 22.0667 114.905 22.95 111.805 23.25V18.8C115.305 18.3333 118.105 16.95 120.205 14.65C122.338 12.3167 123.555 9.38333 123.855 5.85H112.355V1.6H139.605V5.85H128.805C128.705 7.68333 128.388 9.35 127.855 10.85L141.005 19.15L138.555 22.85L126.005 14.8ZM114.805 26.45H151.155V42.65H114.805V26.45ZM119.755 38.45H146.205V30.6H119.755V38.45ZM198.901 0.499997V23.7H193.951V0.499997H198.901ZM174.201 13.75C172.601 16.1833 170.551 18.1833 168.051 19.75C165.551 21.3167 162.767 22.3167 159.701 22.75V18.25C162.334 17.7833 164.651 16.7333 166.651 15.1C168.651 13.4667 170.184 11.4167 171.251 8.95C172.351 6.48333 172.901 3.8 172.901 0.899998L177.851 1.2C177.851 4.26666 177.317 7.15 176.251 9.85L189.751 18.55L187.201 22.2L174.201 13.75ZM162.701 26.05H198.901V42.65H162.701V26.05ZM167.651 38.5H193.951V30.25H167.651V38.5ZM261.36 0.499997V43.2H256.41V38H243.46V33.8H256.41V0.499997H261.36ZM248.31 20.65H224.41V2.05H248.31V20.65ZM243.56 6.35H229.16V16.3H243.56V6.35ZM252.81 27.95C249.877 29.05 245.227 29.6 238.86 29.6H238.01V43.2H233.06V29.6H221.16V25.25H238.81C245.377 25.25 250.043 24.6833 252.81 23.55V27.95ZM323.47 0.499997V26H318.52V14.65H309.67V23.65H285.07V1.55H309.67V10H318.52V0.499997H323.47ZM304.77 5.75H289.97V19.4H304.77V5.75ZM286.77 28.35H323.47V43.2H318.42V32.65H286.77V28.35ZM370.015 15.6V25.4H376.015V30.05H370.015V43.2H365.065V0.499997H370.015V10.95H376.015V15.6H370.015ZM350.315 36.05C352.382 36.05 354.415 35.8667 356.415 35.5C358.449 35.1333 360.099 34.65 361.365 34.05V38.6C360.099 39.2333 358.449 39.7333 356.415 40.1C354.382 40.4667 352.315 40.65 350.215 40.65H333.365V1.8H338.415V36.05H350.315ZM389.761 31.05C389.761 28.05 390.144 25.6667 390.911 23.9C391.711 22.1 393.161 20.4833 395.261 19.05C397.028 17.7833 398.294 16.6333 399.061 15.6C399.861 14.5667 400.261 13.3833 400.261 12.05C400.261 10.1167 399.578 8.56667 398.211 7.4C396.878 6.23333 395.028 5.65 392.661 5.65C391.028 5.65 389.611 6 388.411 6.7C387.244 7.4 386.344 8.3 385.711 9.4C385.111 10.5 384.778 11.65 384.711 12.85H379.611C379.678 10.7167 380.261 8.75 381.361 6.95C382.461 5.15 383.978 3.73333 385.911 2.7C387.878 1.63333 390.111 1.1 392.611 1.1C395.244 1.1 397.511 1.58333 399.411 2.55C401.344 3.48333 402.811 4.78333 403.811 6.45C404.811 8.08333 405.311 9.95 405.311 12.05C405.311 15.5167 403.461 18.5667 399.761 21.2C398.328 22.1667 397.244 23.15 396.511 24.15C395.778 25.15 395.278 26.1833 395.011 27.25C394.778 28.3167 394.661 29.5833 394.661 31.05H389.761ZM392.311 42.95C391.278 42.95 390.411 42.5833 389.711 41.85C389.011 41.15 388.661 40.2833 388.661 39.25C388.661 38.2167 389.011 37.35 389.711 36.65C390.411 35.95 391.278 35.6 392.311 35.6C393.344 35.6 394.211 35.95 394.911 36.65C395.644 37.35 396.011 38.2167 396.011 39.25C396.011 40.3167 395.661 41.2 394.961 41.9C394.261 42.6 393.378 42.95 392.311 42.95Z" fill="black"/>
</svg>
